# xmcd
#
# Track frame offsets: 
#        182
#        14352
#        27567
#        45597
#        58810
#        74845
#        88105
#        100777
#        116605
#        131677
#
# Disc length: 1939 seconds
#
# Revision: 2
# Processed by: cddbd v1.5PL3 Copyright (c) Steve Scherf et al.
# Submitted via: ExactAudioCopy v0.95a3
#
DISCID=8f07910a
DTITLE=Archer Park - We Got A Lot In Common
DYEAR=1994
DGENRE=Country
TTITLE0=We Got A Lot In Common
TTITLE1=Where There's Smoke
TTITLE2=You Don't Know Where This Heart's Been
TTITLE3=I'm Not Crazy
TTITLE4=Your Ol' Rock
TTITLE5=The Man That I Am Now
TTITLE6=Don't Look Now
TTITLE7='Til Something Better Comes Along
TTITLE8=Permanent Thing
TTITLE9=I Still Wanna Jump Your Bones
EXTD=
EXTT0=
EXTT1=
EXTT2=
EXTT3=
EXTT4=
EXTT5=
EXTT6=
EXTT7=
EXTT8=
EXTT9=
PLAYORDER=
